<svg width="24" height="24" viewBox="0 0 24 24" fill="none" xmlns="http://www.w3.org/2000/svg">
<path d="M0 11.9642C0 18.5552 5.42857 24 12 24C18.5714 24 24 18.5552 24 11.9642C24 5.37313 18.5714 0 12 0C5.42857 0 0 5.37313 0 11.9642ZM16.4286 17.5522C13.6429 15.8328 10.0714 15.403 5.92857 16.3343C4.92857 16.4776 4.78571 15.0448 5.64286 14.9015C10.2143 13.8269 14.0714 14.3284 17.2143 16.2627C18 16.7642 17.2143 17.9821 16.4286 17.5522ZM17.6429 14.3284C14.4286 12.3224 9.5 11.7493 5.71429 12.8955C4.5 13.2537 4.07143 11.391 5.21429 11.1045C9.57143 9.81493 14.9286 10.4597 18.6429 12.7522C19.6429 13.397 18.6429 14.9731 17.6429 14.3284ZM5.14286 9.24179C3.92857 9.67164 3.14286 7.59403 4.5 7.09254C8.71428 5.80299 15.8571 6.01791 20.2857 8.66866C21.5 9.31343 20.3571 11.3194 19.0714 10.603C15.2143 8.31045 8.78571 8.09552 5.14286 9.24179Z" fill="black"/>
</svg>
